<svg xmlns="http://www.w3.org/2000/svg" viewBox="0 0 24 30" fill="none" x="0px" y="0px"><path d="M11.3415 4.24742C11.7185 3.91753 12.2815 3.91753 12.6585 4.24742L20.6585 11.2474C21.0742 11.6111 21.1163 12.2429 20.7526 12.6585C20.3889 13.0741 19.7571 13.1163 19.3415 12.7526L19 12.4538V19C19 19.5523 18.5523 20 18 20H14V13.8C14 13.3582 13.7015 13 13.3333 13H10.6667C10.2985 13 10 13.3582 10 13.8V20H6.00001C5.44773 20 5.00001 19.5523 5.00001 19V12.4538L4.65852 12.7526C4.24288 13.1163 3.61112 13.0741 3.24744 12.6585C2.88375 12.2429 2.92587 11.6111 3.34151 11.2474L11.3415 4.24742Z" fill="black"/><text x="0" y="39" fill="#000000" font-size="5px" font-weight="bold" font-family="'Helvetica Neue', Helvetica, Arial-Unicode, Arial, Sans-serif">Created by Petr Bilek</text><text x="0" y="44" fill="#000000" font-size="5px" font-weight="bold" font-family="'Helvetica Neue', Helvetica, Arial-Unicode, Arial, Sans-serif">from the Noun Project</text></svg>