<svg xmlns="http://www.w3.org/2000/svg" viewBox="0 0 32 40" x="0px" y="0px"><g data-name="Layer 2"><path d="M8.5,9.5A7.5,7.5,0,1,1,16,17,7.508,7.508,0,0,1,8.5,9.5ZM17.829,18H14.171A9.181,9.181,0,0,0,5,27.171a2,2,0,0,0,1.637,1.971A51.672,51.672,0,0,0,16,30a51.707,51.707,0,0,0,9.375-.86A2,2,0,0,0,27,27.173v0A9.181,9.181,0,0,0,17.829,18Z"/></g><text x="0" y="47" fill="#000000" font-size="5px" font-weight="bold" font-family="'Helvetica Neue', Helvetica, Arial-Unicode, Arial, Sans-serif">Created by Fajriah Robiatul Adawiah</text><text x="0" y="52" fill="#000000" font-size="5px" font-weight="bold" font-family="'Helvetica Neue', Helvetica, Arial-Unicode, Arial, Sans-serif">from the Noun Project</text></svg>